<svg xmlns="http://www.w3.org/2000/svg" xmlns:xlink="http://www.w3.org/1999/xlink" fill="none" version="1.1" width="61.199999999999996" height="61.199999999999996" viewBox="0 0 61.199999999999996 61.199999999999996"><defs><mask id="master_svg_0"><g style="mix-blend-mode:passthrough"><path d="M7.93743896484375,12.1865234375L42.06253896484375,12.1865234375L42.06253896484375,38.1865234375L7.93743896484375,38.1865234375L7.93743896484375,12.1865234375Z" fill-rule="evenodd" fill="#FFFFFF" fill-opacity="1"/></g></mask></defs><g><g style="mix-blend-mode:passthrough"><rect x="0" y="0" width="50" height="50" rx="0" fill="#000000" fill-opacity="1"/></g><g style="mix-blend-mode:passthrough"><g><g style="mix-blend-mode:passthrough"></g></g><g mask="url(#master_svg_0)"><g style="mix-blend-mode:passthrough"><path d="M36.825838964843754,14.3417234375C36.84493896484375,14.3496334375,36.86073896484375,14.3639634375,36.87013896484375,14.3823834375C40.72383896484375,20.0484134375,42.62733896484375,26.4399234375,41.91543896484375,33.7978234375C41.91283896484375,33.8291234375,41.89653896484375,33.8577234375,41.87113896484375,33.876323437500005C39.29183896484375,35.7866234375,36.40543896484375,37.2426234375,33.336138964843755,38.1817234375C33.29163896484375,38.1953234375,33.24353896484375,38.1790234375,33.216438964843746,38.1412234375C32.56733896484375,37.2406234375,31.98513896484375,36.2937234375,31.47463896484375,35.3081234375C31.46053896484375,35.2806234375,31.45863896484375,35.248323437500005,31.46973896484375,35.2194234375C31.48073896484375,35.1904234375,31.50373896484375,35.1675234375,31.53263896484375,35.156423437499996C32.454438964843746,34.809923437500004,33.34543896484375,34.386123437500004,34.19593896484375,33.8896234375C34.22723896484375,33.8709234375,34.24713896484375,33.8378234375,34.24913896484375,33.8014234375C34.250938964843755,33.7650234375,34.23443896484375,33.7301234375,34.20533896484375,33.7081234375C34.02523896484375,33.5741234375,33.848538964843755,33.435523437499995,33.675338964843746,33.2927234375C33.64393896484375,33.2669234375,33.60043896484375,33.261723437499995,33.56373896484375,33.279123437500004C28.04503896484375,35.8280234375,21.99873896484375,35.8280234375,16.414038964843748,33.279123437500004C16.37750896484375,33.2628234375,16.33470896484375,33.2685234375,16.30379896484375,33.2940234375C16.130818964843748,33.4361234375,15.95453896484375,33.574223437499995,15.77516896484375,33.7081234375C15.74610896484375,33.7302234375,15.72996896484375,33.765423437500004,15.73210896484375,33.801823437500005C15.73421896484375,33.838223437500005,15.75434896484375,33.8711234375,15.78579896484375,33.8896234375C16.63833896484375,34.382023437499996,17.52843896484375,34.8060234375,18.44783896484375,35.1579234375C18.47673896484375,35.1685234375,18.49983896484375,35.1910234375,18.51123896484375,35.2197234375C18.52253896484375,35.2484234375,18.52093896484375,35.2806234375,18.506938964843748,35.3081234375C18.00483896484375,36.299223437500004,17.42175896484375,37.247423437500004,16.76373896484375,38.142723437499995C16.73594896484375,38.179523437499995,16.68821896484375,38.1951234375,16.64399896484375,38.1818234375C13.580238964843751,37.2396234375,10.699008964843749,35.7836234375,8.12293096484375,33.876323437500005C8.09786696484375,33.8567234375,8.08183396484375,33.8280234375,8.07846096484375,33.796423437499996C7.48391796484375,27.4320234375,8.69592796484375,20.987793437500002,13.11990896484375,14.3809734375C13.13067896484375,14.3635234375,13.146678964843751,14.3497734375,13.16567896484375,14.3418734375C15.37786896484375,13.3258034375,17.71291896484375,12.6019124375,20.11183896484375,12.1883328175C20.156338964843748,12.1812233975,20.20073896484375,12.2021889375,20.223538964843748,12.2410368375C20.54873896484375,12.8164284375,20.842038964843752,13.4092634375,21.10183896484375,14.016973437499999C23.68753896484375,13.6244734375,26.31773896484375,13.6244734375,28.90343896484375,14.016973437499999C29.16153896484375,13.4108234375,29.45023896484375,12.8181324375,29.76813896484375,12.2410368375C29.79013896484375,12.2012095375,29.83503896484375,12.1799538575,29.87983896484375,12.1883328175C32.27843896484375,12.6027464375,34.61333896484375,13.3266334375,36.825838964843754,14.3417234375ZM19.34113896484375,29.9211234375C17.65965896484375,29.9211234375,16.27422896484375,28.3781234375,16.27422896484375,26.4832234375C16.27422896484375,24.5880234375,17.63274896484375,23.0449234375,19.34113896484375,23.0449234375C21.06263896484375,23.0449234375,22.43473896484375,24.6015234375,22.407838964843748,26.4830234375C22.407838964843748,28.3781234375,21.04913896484375,29.9211234375,19.34113896484375,29.9211234375ZM30.68003896484375,29.9211234375C28.99883896484375,29.9211234375,27.61333896484375,28.3781234375,27.61333896484375,26.4832234375C27.61333896484375,24.5880234375,28.97183896484375,23.0449234375,30.68003896484375,23.0449234375C32.40193896484375,23.0449234375,33.77383896484375,24.6015234375,33.74693896484375,26.4830234375C33.74693896484375,28.3781234375,32.40193896484375,29.9211234375,30.68003896484375,29.9211234375Z" fill-rule="evenodd" fill="#FFFFFF" fill-opacity="1"/></g></g></g></g></svg>