<svg xmlns="http://www.w3.org/2000/svg" xmlns:xlink="http://www.w3.org/1999/xlink" fill="none" version="1.1" width="61.199999999999996" height="61.199999999999996" viewBox="0 0 61.199999999999996 61.199999999999996"><defs><mask id="master_svg_0"><g style="mix-blend-mode:passthrough"><path d="M9,9L40.9946,9L40.9946,41L9,41L9,9Z" fill-rule="evenodd" fill="#FFFFFF" fill-opacity="1"/></g></mask></defs><g><g style="mix-blend-mode:passthrough"><rect x="0" y="0" width="50" height="50" rx="0" fill="#000000" fill-opacity="1"/></g><g style="mix-blend-mode:passthrough"><g><g style="mix-blend-mode:passthrough"><path d="M33.53578229217529,14.540872573852539C32.47518229217529,14.540872573852539,31.618582292175294,15.397502573852538,31.618582292175294,16.45817257385254C31.618582292175294,17.519042573852538,32.47518229217529,18.37547257385254,33.53578229217529,18.37547257385254C34.596482292175295,18.37547257385254,35.453082292175296,17.52294257385254,35.453082292175296,16.45817257385254C35.448982292175295,15.393599573852539,34.596482292175295,14.540872573852539,33.53578229217529,14.540872573852539ZM16.780482292175293,25.000572573852537C16.780482292175293,20.45740257385254,20.44681229217529,16.79087257385254,24.989942292175293,16.79087257385254C29.533082292175294,16.79087257385254,33.19958229217529,20.45740257385254,33.19958229217529,25.000572573852537C33.19958229217529,29.543372573852537,29.533082292175294,33.20997257385254,24.989942292175293,33.20997257385254C20.44681229217529,33.20997257385254,16.780482292175293,29.543372573852537,16.780482292175293,25.000572573852537ZM24.989922292175294,30.335972573852537C22.051982292175293,30.335972573852537,19.654262292175293,27.93847257385254,19.654262292175293,25.000572573852537C19.654262292175293,22.06242257385254,22.051982292175293,19.66489257385254,24.989922292175294,19.66489257385254C27.92788229217529,19.66489257385254,30.32558229217529,22.06242257385254,30.32558229217529,25.000572573852537C30.32558229217529,27.93847257385254,27.92788229217529,30.335972573852537,24.989922292175294,30.335972573852537Z" fill-rule="evenodd" fill="#FFFFFF" fill-opacity="1"/></g><g style="mix-blend-mode:passthrough"><g><g style="mix-blend-mode:passthrough"></g></g><g mask="url(#master_svg_0)"><g style="mix-blend-mode:passthrough"><path d="M40.99331600675881,24.1875C40.99301600675881,24.4581,40.99271600675881,24.7289,40.99271600675881,25.0001C40.99271600675881,25.3022,40.993216006758814,25.6039,40.99361600675881,25.9054C40.99651600675881,27.8086,40.99931600675881,29.7005,40.88881600675881,31.6045C40.76471600675881,34.1663,40.18421600675881,36.4358,38.30701600675881,38.313C36.43361600675881,40.1863,34.16021600675881,40.770700000000005,31.59851600675881,40.894800000000004C29.66321600675881,41.0037,27.74031600675881,41.0016,25.805416006758808,40.9994C25.53521600675881,40.9991,25.26481600675881,40.9988,24.99411600675881,40.9988C24.72391600675881,40.9988,24.45391600675881,40.9991,24.18421600675881,40.9994C22.25181600675881,41.0016,20.328416006758808,41.0037,18.38960600675881,40.894800000000004C15.82771600675881,40.770700000000005,13.558226006758808,40.190200000000004,11.680956006758809,38.313C9.80784200675881,36.4397,9.223246006758808,34.1663,9.09926200675881,31.6045C8.99026058675881,29.667,8.99237818675881,27.7389,8.99450340475881,25.8038C8.99479746775881,25.536,8.99509167675881,25.2681,8.99509167675881,25.0001C8.99509167675881,24.7319,8.99479737975881,24.464100000000002,8.99450327175881,24.1963C8.99237809675881,22.2619,8.99026285675881,20.3365,9.09926200675881,18.39564C9.223246006758808,15.83371,9.803739006758809,13.564219999999999,11.680956006758809,11.687C13.55432600675881,9.813833,15.82771600675881,9.229237,18.38960600675881,9.105353C20.32641600675881,8.9963369,22.25101600675881,8.99845706,24.18761600675881,9.000590432C24.456216006758808,9.000886283,24.725016006758807,9.00118239,24.99411600675881,9.00118239C25.262616006758808,9.00118239,25.530916006758808,9.000886416,25.79901600675881,9.000590632C27.73301600675881,8.99845719,29.65811600675881,8.99633349,31.59851600675881,9.105353C34.16021600675881,9.229237,36.42971600675881,9.80973,38.30701600675881,11.687C40.18031600675881,13.56032,40.76471600675881,15.83371,40.88881600675881,18.39564C40.99771600675881,20.330399999999997,40.99551600675881,22.253,40.99331600675881,24.1875ZM36.261616006758814,36.2713C36.82611600675881,35.710899999999995,37.17821600675881,35.1666,37.470516006758814,34.438C38.18991600675881,32.627300000000005,38.15151600675881,28.6757,38.12671600675881,26.1207C38.122616006758804,25.705,38.11891600675881,25.3263,38.11891600675881,24.9997C38.11891600675881,24.6722,38.122616006758804,24.292099999999998,38.12671600675881,23.8748C38.15161600675881,21.3188,38.190116006758814,17.36725,37.47441600675881,15.55724C37.182116006758804,14.82879,36.83001600675881,14.28843,36.26551600675881,13.7239C35.70521600675881,13.15971,35.16091600675881,12.80752,34.43221600675881,12.51533C32.62241600675881,11.79956,28.67081600675881,11.83807,26.114816006758808,11.86297C25.69751600675881,11.86704,25.31741600675881,11.87074,24.98991600675881,11.87074C24.66241600675881,11.87074,24.28231600675881,11.86704,23.86511600675881,11.86297C21.30901600675881,11.83807,17.35746600675881,11.79956,15.54756600675881,12.51533C14.81897600675881,12.80752,14.27880600675881,13.16362,13.714376006758808,13.7239C13.149896006758809,14.284469999999999,12.797656006758809,14.82879,12.505556006758809,15.55724C11.78984600675881,17.36702,11.828426006758809,21.3178,11.85337600675881,23.8738C11.85745600675881,24.2915,11.861176006758809,24.672,11.861176006758809,24.9997C11.861176006758809,25.3275,11.85745600675881,25.7079,11.85337600675881,26.1255C11.828426006758809,28.6807,11.789866006758809,32.629000000000005,12.505556006758809,34.442099999999996C12.797656006758809,35.170500000000004,13.149896006758809,35.710899999999995,13.714376006758808,36.275400000000005C14.274656006758809,36.839600000000004,14.81897600675881,37.192,15.54756600675881,37.4842C17.35730600675881,38.199799999999996,21.308316006758808,38.1613,23.86441600675881,38.136399999999995C24.28191600675881,38.1323,24.662316006758807,38.1286,24.98991600675881,38.1286C25.31661600675881,38.1286,25.695516006758808,38.1323,26.11141600675881,38.1363C28.66651600675881,38.1612,32.61781600675881,38.199600000000004,34.428316006758806,37.4801C35.15681600675881,37.1879,35.69721600675881,36.8357,36.261616006758814,36.2713Z" fill-rule="evenodd" fill="#FFFFFF" fill-opacity="1"/></g></g></g></g></g></g></svg>