<svg xmlns="http://www.w3.org/2000/svg" xmlns:xlink="http://www.w3.org/1999/xlink" fill="none" version="1.1" width="502.53717041015625" height="101" viewBox="0 0 502.53717041015625 101"><g style="mix-blend-mode:passthrough"><g><g style="mix-blend-mode:passthrough"><path d="M0,0L0,78.5557L77.4404,78.5557L77.4404,61.9467L19.9756,61.9467L19.9756,46.5729L60.383,46.5729L60.383,31.4221L19.9756,31.4221L19.9756,16.6082L76.0936,16.6082L76.0936,0L0,0Z" fill-rule="evenodd" fill="#000000" fill-opacity="1"/></g><g style="mix-blend-mode:passthrough"><path d="M81.7092514038086,78.55541723937989L81.7092514038086,73.61831723937988L105.9481514038086,49.603117239379884L83.6167114038086,26.933027239379882L83.6167114038086,22.108217239379883L103.7046514038086,22.108217239379883L118.18165140380859,37.706517239379885L120.76295140380859,37.706517239379885L135.3505514038086,22.108217239379883L154.2039514038086,22.108217239379883L154.2039514038086,26.933027239379882L131.8725514038086,49.266217239379884L156.1114514038086,73.61831723937988L156.1114514038086,78.55541723937989L136.0234514038086,78.55541723937989L119.8653514038086,61.273317239379885L117.0585514038086,61.273317239379885L100.56265140380859,78.55541723937989L81.7092514038086,78.55541723937989Z" fill-rule="evenodd" fill="#000000" fill-opacity="1"/></g><g style="mix-blend-mode:passthrough"><path d="M178.71743361816405,26.716127239379883L185.11373361816408,22.108217239379883L213.05603361816407,22.108217239379883L229.89063361816406,36.35971723937988L229.89063361816406,64.19151723937989L213.05603361816407,78.55541723937989L178.71743361816405,78.55541723937989L178.71743361816405,101.00001723937989L159.97633361816406,101.00001723937989L159.97633361816406,22.108217239379883L178.71743361816405,22.108217239379883L178.71743361816405,26.716127239379883ZM186.79743361816406,37.59511723937988L178.71743361816405,43.31751723937988L178.71743361816405,63.06861723937988L204.41553361816406,63.06861723937988L211.14953361816407,57.457617239379886L211.14953361816407,43.206917239379884L204.41553361816406,37.59511723937988L186.79743361816406,37.59511723937988Z" fill-rule="evenodd" fill="#000000" fill-opacity="1"/></g><g style="mix-blend-mode:passthrough"><path d="M235.19198608398438,78.55541723937989L235.19198608398438,22.108217239379883L253.91508608398436,22.108217239379883L253.91508608398436,27.158487239379884L252.69778608398437,27.158487239379884L259.6563860839844,22.108217239379883L285.49408608398437,22.108217239379883L285.49408608398437,37.59511723937988L261.22778608398437,37.59511723937988L253.93308608398436,42.86911723937988L253.93308608398436,78.55541723937989L235.19198608398438,78.55541723937989Z" fill-rule="evenodd" fill="#000000" fill-opacity="1"/></g><g style="mix-blend-mode:passthrough"><path d="M285.49420166015625,64.19125974731446L302.32620166015624,78.55515974731446L352.48940166015626,78.55515974731446L352.48940166015626,64.19125974731446L310.9685016601562,64.19125974731446L304.23530166015627,58.58035974731445L304.23530166015627,56.11135974731445L357.65290166015626,56.11135974731445L357.65290166015626,36.360359747314455L340.81920166015624,22.107959747314453L302.32620166015624,22.107959747314453L285.49420166015625,36.360359747314455L285.49420166015625,64.19125974731446ZM338.91090166015624,44.327159747314454L304.23530166015627,44.327159747314454L304.23530166015627,41.85985974731445L310.9685016601562,36.24895974731445L332.17770166015623,36.24895974731445L338.91090166015624,41.85985974731445L338.91090166015624,44.327159747314454Z" fill-rule="evenodd" fill="#000000" fill-opacity="1"/></g><g style="mix-blend-mode:passthrough"><path d="M362.5752258300781,78.55541723937989L362.5752258300781,65.08911723937987L408.47262583007813,65.08911723937987L411.61542583007815,62.39471723937988L411.61542583007815,59.70191723937988L408.47262583007813,57.008317239379885L374.13312583007814,57.008317239379885L362.5752258300781,47.47021723937988L362.5752258300781,31.646387239379884L374.13312583007814,22.108217239379883L426.31702583007814,22.108217239379883L426.31702583007814,35.575317239379885L384.45742583007814,35.575317239379885L381.3146258300781,38.15571723937988L381.3146258300781,40.96161723937988L384.45742583007814,43.54291723937988L418.7969258300781,43.54291723937988L430.35572583007814,53.19341723937988L430.35572583007814,69.01721723937987L418.7969258300781,78.55541723937989L362.5752258300781,78.55541723937989Z" fill-rule="evenodd" fill="#000000" fill-opacity="1"/></g><g style="mix-blend-mode:passthrough"><path d="M446.3137288574219,22.108217239379883L434.7558288574219,31.646387239379884L434.7558288574219,47.47021723937988L446.3137288574219,57.008317239379885L480.6523288574219,57.008317239379885L483.7960288574219,59.70191723937988L483.7960288574219,62.395517239379885L480.6523288574219,65.08831723937988L434.9967258574219,65.08831723937988L434.9967258574219,78.55541723937989L490.9766288574219,78.55541723937989L502.53712885742186,69.01721723937987L502.53712885742186,53.19341723937988L490.9766288574219,43.54291723937988L456.6380288574219,43.54291723937988L453.49522885742186,40.96161723937988L453.49522885742186,38.15571723937988L456.6380288574219,35.575317239379885L498.4976288574219,35.575317239379885L498.4976288574219,22.108217239379883L446.3137288574219,22.108217239379883Z" fill-rule="evenodd" fill="#000000" fill-opacity="1"/></g></g></g></svg>