<svg xmlns="http://www.w3.org/2000/svg" xmlns:xlink="http://www.w3.org/1999/xlink" fill="none" version="1.1" width="61.199999999999996" height="61.199999999999996" viewBox="0 0 61.199999999999996 61.199999999999996"><defs><mask id="master_svg_0"><g style="mix-blend-mode:passthrough"><path d="M9.18743896484375,11.1865234375L41.84973896484375,11.1865234375L41.84973896484375,39.1865234375L9.18743896484375,39.1865234375L9.18743896484375,11.1865234375Z" fill-rule="evenodd" fill="#FFFFFF" fill-opacity="1"/></g></mask></defs><g><g style="mix-blend-mode:passthrough"><rect x="0" y="0" width="50" height="50" rx="0" fill="#000000" fill-opacity="1"/></g><g style="mix-blend-mode:passthrough"><g><g style="mix-blend-mode:passthrough"></g></g><g mask="url(#master_svg_0)"><g style="mix-blend-mode:passthrough"><path d="M38.52443896484375,19.156363437499998C38.52443896484375,18.8500334375,38.518638964843745,18.5470834375,38.50503896484375,18.2461834375C39.81483896484375,17.2702534375,40.95113896484375,16.0487534375,41.84983896484375,14.650743437500001C40.629338964843754,15.1999334375,39.33063896484375,15.5553434375,38.00033896484375,15.7039034375C39.38483896484375,14.8519734375,40.446538964843754,13.4894934375,40.94813896484375,11.8544534375C39.65193896484375,12.6405134375,38.21803896484375,13.2026234375,36.69363896484375,13.495433437500001C35.47213896484375,12.1055224375,33.72903896484375,11.2202605375,31.80203896484375,11.1874065735C28.10103896484375,11.1262041375,25.10093896484375,14.253743437499999,25.10093896484375,18.1718934375C25.10093896484375,18.7288234375,25.15913896484375,19.268953437500002,25.27473896484375,19.7905534375C19.701638964843752,19.431873437500002,14.76303896484375,16.531073437499998,11.45961896484375,12.1578734375C10.88320896484375,13.2055734375,10.55238896484375,14.4300534375,10.55238896484375,15.7423834375C10.55238896484375,18.2243734375,11.735608964843749,20.430203437499998,13.53308896484375,21.7319234375C12.43275896484375,21.6823234375,11.40184896484375,21.348923437499998,10.497568964843751,20.8024434375L10.497568964843751,20.8935534375C10.497568964843751,24.362523437500002,12.80822896484375,27.2689234375,15.874128964843749,27.9471234375C15.312028964843751,28.1068234375,14.71925896484375,28.1900234375,14.10950896484375,28.1870234375C13.68587896484375,28.1849234375,13.26363896484375,28.1386234375,12.84969896484375,28.0490234375C13.70146896484375,30.8917234375,16.17750896484375,32.9686234375,19.10884896484375,33.037823437499995C16.81469896484375,34.9399234375,13.92478896484375,36.076223437500005,10.78711896484375,36.0683234375C10.24621896484375,36.0683234375,9.71154696484375,36.0320234375,9.18743896484375,35.9662234375C12.15425896484375,38.001323437500005,15.67584896484375,39.1865234375,19.46163896484375,39.1865234375C31.78513896484375,39.1895234375,38.52443896484375,28.4630234375,38.52443896484375,19.156363437499998Z" fill-rule="evenodd" fill="#FFFFFF" fill-opacity="1"/></g></g></g></g></svg>